<svg viewBox="0 0 600 400" xmlns="http://www.w3.org/2000/svg">
<g transform="translate(48, 364)">
<g>
<circle cx="283.6363636363636" cy="-139.0909090909091" fill="#35C788" r="5"/>
<circle cx="325" cy="-154.54545454545453" fill="#35C788" r="5"/>
<circle cx="295.45454545454544" cy="-170" fill="#35C788" r="5"/>
<circle cx="390" cy="-170" fill="#35C788" r="5"/>
<circle cx="265.90909090909093" cy="-162.27272727272728" fill="#35C788" r="5"/>
<circle cx="277.72727272727275" cy="-170" fill="#35C788" r="5"/>
<circle cx="490.45454545454544" cy="-170" fill="#35C788" r="5"/>
<circle cx="265.90909090909093" cy="-154.54545454545453" fill="#35C788" r="5"/>
<circle cx="366.3636363636364" cy="-170" fill="#35C788" r="5"/>
<circle cx="490.45454545454544" cy="-162.27272727272728" fill="#35C788" r="5"/>
<circle cx="460.90909090909093" cy="-131.36363636363637" fill="#35C788" r="5"/>
<circle cx="354.54545454545456" cy="-170" fill="#35C788" r="5"/>
<circle cx="325" cy="-146.8181818181818" fill="#35C788" r="5"/>
<circle cx="325" cy="-139.0909090909091" fill="#35C788" r="5"/>
<circle cx="295.45454545454544" cy="-139.0909090909091" fill="#35C788" r="5"/>
<circle cx="395.90909090909093" cy="-170" fill="#35C788" r="5"/>
<circle cx="372.27272727272725" cy="-131.36363636363637" fill="#35C788" r="5"/>
<circle cx="472.72727272727275" cy="-139.0909090909091" fill="#35C788" r="5"/>
<circle cx="455" cy="-131.36363636363637" fill="#35C788" r="5"/>
<circle cx="271.8181818181818" cy="-170" fill="#35C788" r="5"/>
<circle cx="342.72727272727275" cy="-162.27272727272728" fill="#35C788" r="5"/>
<circle cx="295.45454545454544" cy="-131.36363636363637" fill="#35C788" r="5"/>
<circle cx="342.72727272727275" cy="-139.0909090909091" fill="#35C788" r="5"/>
<circle cx="390" cy="-131.36363636363637" fill="#35C788" r="5"/>
<circle cx="443.1818181818182" cy="-162.27272727272728" fill="#35C788" r="5"/>
<circle cx="401.8181818181818" cy="-162.27272727272728" fill="#35C788" r="5"/>
<circle cx="490.45454545454544" cy="-131.36363636363637" fill="#35C788" r="5"/>
<circle cx="271.8181818181818" cy="-131.36363636363637" fill="#35C788" r="5"/>
<circle cx="354.54545454545456" cy="-131.36363636363637" fill="#35C788" r="5"/>
<circle cx="384.09090909090907" cy="-162.27272727272728" fill="#35C788" r="5"/>
<circle cx="372.27272727272725" cy="-170" fill="#35C788" r="5"/>
<circle cx="484.54545454545456" cy="-131.36363636363637" fill="#35C788" r="5"/>
<circle cx="295.45454545454544" cy="-162.27272727272728" fill="#35C788" r="5"/>
<circle cx="336.8181818181818" cy="-131.36363636363637" fill="#35C788" r="5"/>
<circle cx="425.45454545454544" cy="-131.36363636363637" fill="#35C788" r="5"/>
<circle cx="484.54545454545456" cy="-154.54545454545453" fill="#35C788" r="5"/>
<circle cx="384.09090909090907" cy="-146.8181818181818" fill="#35C788" r="5"/>
<circle cx="313.1818181818182" cy="-131.36363636363637" fill="#35C788" r="5"/>
<circle cx="265.90909090909093" cy="-170" fill="#35C788" r="5"/>
<circle cx="384.09090909090907" cy="-139.0909090909091" fill="#35C788" r="5"/>
<circle cx="443.1818181818182" cy="-139.0909090909091" fill="#35C788" r="5"/>
<circle cx="425.45454545454544" cy="-170" fill="#35C788" r="5"/>
<circle cx="295.45454545454544" cy="-154.54545454545453" fill="#35C788" r="5"/>
<circle cx="301.3636363636364" cy="-131.36363636363637" fill="#35C788" r="5"/>
<circle cx="325" cy="-162.27272727272728" fill="#35C788" r="5"/>
<circle cx="478.6363636363636" cy="-146.8181818181818" fill="#35C788" r="5"/>
<circle cx="283.6363636363636" cy="-146.8181818181818" fill="#35C788" r="5"/>
<circle cx="330.90909090909093" cy="-170" fill="#35C788" r="5"/>
<circle cx="478.6363636363636" cy="-170" fill="#35C788" r="5"/>
<circle cx="360.45454545454544" cy="-131.36363636363637" fill="#35C788" r="5"/>
<circle cx="431.3636363636364" cy="-162.27272727272728" fill="#35C788" r="5"/>
<circle cx="443.1818181818182" cy="-170" fill="#35C788" r="5"/>
<circle cx="277.72727272727275" cy="-131.36363636363637" fill="#35C788" r="5"/>
<circle cx="366.3636363636364" cy="-131.36363636363637" fill="#35C788" r="5"/>
<circle cx="443.1818181818182" cy="-154.54545454545453" fill="#35C788" r="5"/>
<circle cx="472.72727272727275" cy="-131.36363636363637" fill="#35C788" r="5"/>
<circle cx="395.90909090909093" cy="-131.36363636363637" fill="#35C788" r="5"/>
<circle cx="271.8181818181818" cy="-154.54545454545453" fill="#35C788" r="5"/>
<circle cx="372.27272727272725" cy="-162.27272727272728" fill="#35C788" r="5"/>
<circle cx="401.8181818181818" cy="-139.0909090909091" fill="#35C788" r="5"/>
<circle cx="419.54545454545456" cy="-131.36363636363637" fill="#35C788" r="5"/>
<circle cx="384.09090909090907" cy="-154.54545454545453" fill="#35C788" r="5"/>
<circle cx="413.6363636363636" cy="-139.0909090909091" fill="#35C788" r="5"/>
<circle cx="431.3636363636364" cy="-154.54545454545453" fill="#35C788" r="5"/>
<circle cx="265.90909090909093" cy="-146.8181818181818" fill="#35C788" r="5"/>
<circle cx="366.3636363636364" cy="-154.54545454545453" fill="#35C788" r="5"/>
<circle cx="443.1818181818182" cy="-146.8181818181818" fill="#35C788" r="5"/>
<circle cx="307.27272727272725" cy="-131.36363636363637" fill="#35C788" r="5"/>
<circle cx="431.3636363636364" cy="-139.0909090909091" fill="#35C788" r="5"/>
<circle cx="277.72727272727275" cy="-154.54545454545453" fill="#35C788" r="5"/>
<circle cx="360.45454545454544" cy="-170" fill="#35C788" r="5"/>
<circle cx="360.45454545454544" cy="-146.8181818181818" fill="#35C788" r="5"/>
<circle cx="330.90909090909093" cy="-131.36363636363637" fill="#35C788" r="5"/>
<circle cx="431.3636363636364" cy="-170" fill="#35C788" r="5"/>
<circle cx="472.72727272727275" cy="-170" fill="#35C788" r="5"/>
<circle cx="484.54545454545456" cy="-170" fill="#35C788" r="5"/>
<circle cx="265.90909090909093" cy="-139.0909090909091" fill="#35C788" r="5"/>
<circle cx="431.3636363636364" cy="-146.8181818181818" fill="#35C788" r="5"/>
<circle cx="354.54545454545456" cy="-139.0909090909091" fill="#35C788" r="5"/>
<circle cx="265.90909090909093" cy="-131.36363636363637" fill="#35C788" r="5"/>
<circle cx="283.6363636363636" cy="-162.27272727272728" fill="#35C788" r="5"/>
<circle cx="295.45454545454544" cy="-146.8181818181818" fill="#35C788" r="5"/>
<circle cx="336.8181818181818" cy="-170" fill="#35C788" r="5"/>
<circle cx="449.09090909090907" cy="-131.36363636363637" fill="#35C788" r="5"/>
<circle cx="443.1818181818182" cy="-131.36363636363637" fill="#35C788" r="5"/>
<circle cx="478.6363636363636" cy="-131.36363636363637" fill="#35C788" r="5"/>
</g>
<g>
<g>
<line stroke="black" stroke-width="1" x1="23.636363636363637" x2="23.636363636363637" y1="0" y2="10"/>
<line stroke="black" stroke-width="1" x1="141.8181818181818" x2="141.8181818181818" y1="0" y2="10"/>
<line stroke="black" stroke-width="1" x1="260" x2="260" y1="0" y2="10"/>
<line stroke="black" stroke-width="1" x1="378.1818181818182" x2="378.1818181818182" y1="0" y2="10"/>
<line stroke="black" stroke-width="1" x1="496.3636363636364" x2="496.3636363636364" y1="0" y2="10"/>
</g>
<line stroke="black" stroke-width="1" x1="0" x2="520" y1="0" y2="0"/>
<g>
<text font-size="12" text-anchor="middle" x="23.636363636363637" y="20">
-40
</text>
<text font-size="12" text-anchor="middle" x="141.8181818181818" y="20">
-20
</text>
<text font-size="12" text-anchor="middle" x="260" y="20">
0
</text>
<text font-size="12" text-anchor="middle" x="378.1818181818182" y="20">
20
</text>
<text font-size="12" text-anchor="middle" x="496.3636363636364" y="20">
40
</text>
</g>
<text font-size="12" text-anchor="middle" x="260" y="30">

</text>
</g>
<g>
<g>
<line stroke="black" stroke-width="1" x1="0" x2="-10" y1="-15.454545454545455" y2="-15.454545454545455"/>
<line stroke="black" stroke-width="1" x1="0" x2="-10" y1="-92.72727272727273" y2="-92.72727272727273"/>
<line stroke="black" stroke-width="1" x1="0" x2="-10" y1="-170" y2="-170"/>
<line stroke="black" stroke-width="1" x1="0" x2="-10" y1="-247.27272727272728" y2="-247.27272727272728"/>
<line stroke="black" stroke-width="1" x1="0" x2="-10" y1="-324.54545454545456" y2="-324.54545454545456"/>
</g>
<line stroke="black" stroke-width="1" x1="0" x2="0" y1="0" y2="-340"/>
<g>
<text dominant-baseline="middle" font-size="12" text-anchor="end" x="-15" y="-15.454545454545455">
-20
</text>
<text dominant-baseline="middle" font-size="12" text-anchor="end" x="-15" y="-92.72727272727273">
-10
</text>
<text dominant-baseline="middle" font-size="12" text-anchor="end" x="-15" y="-170">
0
</text>
<text dominant-baseline="middle" font-size="12" text-anchor="end" x="-15" y="-247.27272727272728">
10
</text>
<text dominant-baseline="middle" font-size="12" text-anchor="end" x="-15" y="-324.54545454545456">
20
</text>
</g>
<text font-size="12" text-anchor="middle" transform="rotate(-90 -30 -170)" x="-30" y="-170">

</text>
</g>
</g>
</svg>